<?xml version="1.0" standalone="no"?>
<!DOCTYPE svg PUBLIC "-//W3C//DTD SVG 20010904//EN"
 "http://www.w3.org/TR/2001/REC-SVG-20010904/DTD/svg10.dtd">
<svg version="1.0" xmlns="http://www.w3.org/2000/svg"
 width="1024.000000pt" height="1024.000000pt" viewBox="0 0 1024.000000 1024.000000"
 preserveAspectRatio="xMidYMid meet">

<g transform="translate(0.000000,1024.000000) scale(0.100000,-0.100000)"
fill="#000000" stroke="none">
<path d="M1770 6056 c-399 -85 -680 -429 -680 -835 0 -145 44 -319 107 -430
l25 -44 94 94 94 94 -27 75 c-34 99 -43 254 -19 350 53 210 210 374 406 425
81 21 224 22 305 0 218 -57 385 -223 436 -435 22 -90 17 -233 -10 -319 -63
-195 -229 -353 -417 -397 -126 -29 -326 -3 -399 52 -20 15 -19 16 20 51 22 20
100 94 172 165 l133 130 -77 84 c-43 46 -81 84 -86 84 -4 0 -134 -120 -288
-267 l-280 -267 48 -49 c232 -237 580 -317 891 -205 147 53 328 191 412 313
51 74 108 205 131 301 42 177 13 408 -75 582 -105 209 -298 367 -528 432 -95
28 -295 35 -388 16z"/>
<path d="M3220 5255 l0 -575 120 0 120 0 0 575 0 575 -120 0 -120 0 0 -575z"/>
<path d="M7150 5615 l0 -105 -90 0 -90 0 0 -85 0 -85 89 0 89 0 4 -242 c4
-266 8 -283 68 -352 46 -52 111 -78 211 -84 48 -2 107 -2 133 2 l46 7 0 94 0
94 -63 -6 c-76 -7 -128 8 -157 44 -19 24 -20 40 -20 234 l0 209 120 0 120 0 0
85 0 85 -120 0 -120 0 0 105 0 105 -110 0 -110 0 0 -105z"/>
<path d="M2248 5523 c7 -3 16 -2 19 1 4 3 -2 6 -13 5 -11 0 -14 -3 -6 -6z"/>
<path d="M5330 5517 c-98 -27 -179 -104 -205 -191 -26 -88 -29 -86 84 -86 l99
0 19 37 c26 55 74 83 140 83 104 0 154 -39 161 -125 l4 -55 -49 0 c-85 0 -265
-20 -326 -37 -147 -40 -223 -167 -184 -304 36 -123 130 -181 292 -183 108 -1
159 13 220 59 25 19 47 35 50 35 3 0 5 -16 5 -35 l0 -35 111 0 110 0 -3 308
c-3 299 -4 308 -27 360 -30 66 -94 124 -170 153 -70 27 -260 36 -331 16z m300
-526 c0 -60 -4 -74 -25 -100 -31 -36 -96 -62 -161 -64 -62 -2 -105 16 -127 52
-60 102 43 174 256 180 l57 1 0 -69z"/>
<path d="M6460 5514 c-25 -9 -68 -34 -97 -55 -29 -21 -55 -39 -58 -39 -3 0 -5
20 -5 45 0 43 -1 45 -30 45 -17 0 -47 -7 -67 -15 -33 -14 -38 -14 -45 0 -7 11
-27 15 -83 15 l-75 0 0 -420 0 -421 139 3 140 3 4 235 c3 135 10 255 17 282
26 100 119 165 221 156 57 -6 95 -30 124 -79 19 -31 20 -55 23 -317 l3 -283
110 3 110 3 -1 308 c0 287 -2 312 -22 365 -26 72 -96 142 -163 166 -61 20
-185 20 -245 0z"/>
<path d="M8547 5519 c-56 -13 -108 -43 -148 -86 -46 -48 -68 -90 -76 -148 l-6
-45 99 0 100 0 19 43 c25 53 70 77 145 77 101 0 158 -53 159 -147 1 -33 1 -33
-48 -33 -70 0 -247 -18 -306 -31 -72 -17 -118 -42 -157 -89 -107 -124 -60
-313 94 -380 42 -19 72 -24 143 -24 107 -1 155 12 225 59 29 19 54 35 56 35 2
0 4 -16 4 -35 l0 -35 111 0 110 0 -3 298 c-3 244 -6 305 -20 340 -55 145 -175
213 -373 211 -49 -1 -107 -5 -128 -10z m293 -514 c0 -31 -6 -71 -14 -89 -38
-90 -231 -124 -293 -51 -25 28 -30 82 -13 116 24 43 129 75 258 78 l62 1 0
-55z"/>
<path d="M3936 5505 c-21 -7 -55 -27 -76 -44 l-37 -30 -16 40 -15 39 -86 0
-86 0 0 -420 0 -420 110 0 110 0 0 238 c0 264 8 318 57 364 29 28 122 58 180
58 l33 0 0 89 c0 72 -3 90 -16 95 -27 11 -118 6 -158 -9z"/>
<path d="M4173 5508 c24 -58 227 -585 312 -810 6 -16 22 -18 135 -18 l127 0
160 418 161 417 -116 3 c-67 1 -118 -1 -121 -7 -3 -5 -51 -138 -106 -295 -55
-157 -102 -286 -105 -286 -3 0 -52 132 -110 293 l-105 292 -119 3 c-93 2 -117
0 -113 -10z"/>
<path d="M8056 5505 c-21 -7 -53 -27 -70 -44 -18 -17 -34 -31 -37 -31 -3 0
-11 18 -18 40 l-12 40 -89 0 -90 0 0 -420 0 -421 109 3 110 3 4 251 c3 242 4
253 28 300 30 61 82 90 178 100 l67 6 3 83 c2 75 0 85 -18 94 -27 15 -118 13
-165 -4z"/>
<path d="M2048 5483 c7 -3 16 -2 19 1 4 3 -2 6 -13 5 -11 0 -14 -3 -6 -6z"/>
<path d="M1998 5473 c7 -3 16 -2 19 1 4 3 -2 6 -13 5 -11 0 -14 -3 -6 -6z"/>
<path d="M1838 5443 c6 -2 18 -2 25 0 6 3 1 5 -13 5 -14 0 -19 -2 -12 -5z"/>
<path d="M1798 5433 c7 -3 16 -2 19 1 4 3 -2 6 -13 5 -11 0 -14 -3 -6 -6z"/>
<path d="M1748 5423 c7 -3 16 -2 19 1 4 3 -2 6 -13 5 -11 0 -14 -3 -6 -6z"/>
<path d="M1730 5345 c13 -14 26 -25 28 -25 3 0 -5 11 -18 25 -13 14 -26 25
-28 25 -3 0 5 -11 18 -25z"/>
<path d="M1815 5250 c10 -11 20 -20 23 -20 3 0 -3 9 -13 20 -10 11 -20 20 -23
20 -3 0 3 -9 13 -20z"/>
<path d="M2065 4980 c21 -22 41 -40 44 -40 3 0 -13 18 -34 40 -21 22 -41 40
-44 40 -3 0 13 -18 34 -40z"/>
</g>
</svg>
